<?xml version="1.0"?>
<svg xmlns:rdf="http://www.w3.org/1999/02/22-rdf-syntax-ns#" xmlns="http://www.w3.org/2000/svg" xmlns:cc="http://creativecommons.org/ns#" xmlns:dc="http://purl.org/dc/elements/1.1/" xmlns:svg="http://www.w3.org/2000/svg" id="svg1" viewBox="0 0 78.364 84.69" version="1.0">
  <g id="layer1" transform="translate(-69.069 -71.631)">
    <path id="text1061" d="m111.54 124.05c0 1.54-1.07 2.32-3.23 2.32-2.4 0-3.61-0.78-3.61-2.32 0-7.15-2.37-12.96-7.1-17.43-4.218-3.79-8.306-5.68-12.265-5.68-5.852 0-9.51 2.32-10.973 6.97l-0.517 3.48v0.26c0 3.44 2.539 8.22 7.617 14.33 1.377 1.55 2.539 2.76 3.486 3.62 1.377 1.12 3.658 1.68 6.842 1.68 3.357 0 8.78-0.65 16.27-1.94 7.57 1.29 13.04 1.94 16.39 1.94 3.27 0 5.55-0.56 6.84-1.68 3.62-3.19 6.63-7.06 9.04-11.62 1.38-2.58 2.07-4.69 2.07-6.33 0-5.42-2.46-8.82-7.36-10.2-1.29-0.34-2.67-0.51-4.13-0.51-3.96 0-8.01 1.93-12.14 5.81-4.82 4.3-7.23 10.07-7.23 17.3m28.02-12.4c0 3.44-2.37 7.49-7.1 12.14l-3.36 2.84-1.29 0.77c-1.64 0.26-3.36 0.39-5.16 0.39-5.34 0-8.01-1.08-8.01-3.23 0.17-6.63 2.15-11.79 5.94-15.49 3.27-3.27 6.63-4.91 10.07-4.91 4.39 0 7.19 1.6 8.39 4.78l0.52 2.71m-12.27 32.79c0-2.23-6.32-3.35-18.98-3.35-3.44 0-6.49 0.13-9.161 0.38l-3.099 0.26c-4.647 0.6-6.971 1.47-6.971 2.58 0 1.3 1.162 1.94 3.486 1.94l15.625-1.29 15.49 1.29c2.41 0 3.61-0.6 3.61-1.81m7.23 3.1c-0.17 5.85-8.95 8.78-26.33 8.78-17.217 0-25.953-2.93-26.211-8.78-0.086-5.51-0.904-10.41-2.453-14.72-0.947-2.32-2.754-5.29-5.422-8.9-3.357-4.56-5.035-8.61-5.035-12.14 0-5.51 2.366-9.77 7.1-12.78 2.668-1.721 5.637-2.582 8.908-2.582 4.475 0 8.736 1.636 12.781 4.902 0-3.955 0.387-6.666 1.162-8.129 0.602-1.636 2.58-3.615 5.94-5.939v-2.969l-5.295-3.228v-4.647h4.775l1.55-4.777h4.39l1.68 4.777h4.65v4.647l-5.17 3.228v2.969c3.27 2.41 5.3 4.476 6.07 6.197l0.9 3.744c0.09 1.033 0.18 2.41 0.26 4.127 4.05-3.266 8.22-4.902 12.52-4.902 5.77 0 10.25 2.195 13.43 6.582 1.81 2.58 2.71 5.51 2.71 8.78 0 3.53-1.68 7.62-5.03 12.27l-2.97 4.13c-3.19 4.82-4.82 11.27-4.91 19.36m-57.705-35.89c0-3.61 1.807-5.94 5.422-6.97 1.033-0.34 2.108-0.52 3.227-0.52 3.615 0 7.058 1.64 10.328 4.91 3.701 3.79 5.638 8.95 5.808 15.49 0.09 1.9-1.892 2.97-5.937 3.23h-1.936c-1.722 0-3.486-0.13-5.293-0.39-2.841-1.37-5.681-4.09-8.521-8.13-2.066-3.01-3.098-5.55-3.098-7.62"/>
  </g>
</svg>
