<?xml version="1.0"?>
<svg xmlns:rdf="http://www.w3.org/1999/02/22-rdf-syntax-ns#" xmlns="http://www.w3.org/2000/svg" xmlns:cc="http://creativecommons.org/ns#" xmlns:dc="http://purl.org/dc/elements/1.1/" xmlns:svg="http://www.w3.org/2000/svg" id="svg1" viewBox="0 0 55.384 75.911" version="1.0">
  <g id="layer1" transform="translate(-919.95 -80.41)">
    <path id="path1722" d="m920.08 156.32c-0.08-1.03-0.13-3.05-0.13-6.07 0-10.84 3.36-18.89 10.07-24.14 1.98-1.63 4.39-3.14 7.23-4.52-3.35-1.03-5.63-3.57-6.84-7.61-0.34-1.3-0.52-2.63-0.52-4.01 0-5.76 2.97-9.85 8.91-12.261-1.55-2.582-2.32-5.035-2.32-7.358 0-3.873 1.89-6.757 5.68-8.65 1.72-0.861 3.57-1.291 5.55-1.291 4.3 0 7.49 1.678 9.55 5.035 0.95 1.463 1.42 3.098 1.42 4.906 0 2.496-0.73 4.948-2.19 7.358 3.18 1.291 5.46 3.011 6.84 5.161 1.38 2.33 2.07 4.69 2.07 7.1 0 4.48-1.55 7.88-4.65 10.2-0.78 0.69-1.64 1.16-2.58 1.42 7.92 4.05 13.04 9.34 15.36 15.88 1.21 3.62 1.81 7.88 1.81 12.78 0 3.02-0.05 5.04-0.13 6.07h-55.13"/>
  </g>
</svg>
