<?xml version="1.0"?>
<svg xmlns:rdf="http://www.w3.org/1999/02/22-rdf-syntax-ns#" xmlns="http://www.w3.org/2000/svg" xmlns:cc="http://web.resource.org/cc/" xmlns:xlink="http://www.w3.org/1999/xlink" xmlns:dc="http://purl.org/dc/elements/1.1/" xmlns:svg="http://www.w3.org/2000/svg" id="svg2433" viewBox="0 0 800 800" version="1.0">
  <g id="layer1" transform="translate(-.0000088672 -7.373e-7)">
    <g id="g2889" transform="translate(-911.68 225.52)">
      <g id="g3233">
        <rect id="rect2499" fill-rule="evenodd" height="100" width="100" y="-225.52" x="911.68" fill="#9f9f9f"/>
        <use id="use2959" xlink:href="#rect2499" transform="translate(0,200)" height="1052.3622" width="744.09448" y="0" x="0"/>
        <use id="use2963" xlink:href="#rect2499" transform="translate(0,400)" height="1052.3622" width="744.09448" y="0" x="0"/>
        <use id="use2967" xlink:href="#rect2499" transform="translate(0,600)" height="1052.3622" width="744.09448" y="0" x="0"/>
        <use id="use2973" xlink:href="#rect2499" transform="translate(100,100)" height="1052.3622" width="744.09448" y="0" x="0"/>
        <use id="use2977" xlink:href="#rect2499" transform="translate(100,300)" height="1052.3622" width="744.09448" y="0" x="0"/>
        <use id="use2981" xlink:href="#rect2499" transform="translate(100,500)" height="1052.3622" width="744.09448" y="0" x="0"/>
        <use id="use2985" xlink:href="#rect2499" transform="translate(100,700)" height="1052.3622" width="744.09448" y="0" x="0"/>
        <use id="use2987" xlink:href="#rect2499" transform="translate(200)" height="1052.3622" width="744.09448" y="0" x="0"/>
        <use id="use2991" xlink:href="#rect2499" transform="translate(200,200)" height="1052.3622" width="744.09448" y="0" x="0"/>
        <use id="use2995" xlink:href="#rect2499" transform="translate(200,400)" height="1052.3622" width="744.09448" y="0" x="0"/>
        <use id="use2999" xlink:href="#rect2499" transform="translate(200,600)" height="1052.3622" width="744.09448" y="0" x="0"/>
        <use id="use3005" xlink:href="#rect2499" transform="translate(300,100)" height="1052.3622" width="744.09448" y="0" x="0"/>
        <use id="use3009" xlink:href="#rect2499" transform="translate(300,300)" height="1052.3622" width="744.09448" y="0" x="0"/>
        <use id="use3013" xlink:href="#rect2499" transform="translate(300,500)" height="1052.3622" width="744.09448" y="0" x="0"/>
        <use id="use3017" xlink:href="#rect2499" transform="translate(300,700)" height="1052.3622" width="744.09448" y="0" x="0"/>
        <use id="use3019" xlink:href="#rect2499" transform="translate(400)" height="1052.3622" width="744.09448" y="0" x="0"/>
        <use id="use3023" xlink:href="#rect2499" transform="translate(400,200)" height="1052.3622" width="744.09448" y="0" x="0"/>
        <use id="use3027" xlink:href="#rect2499" transform="translate(400,400)" height="1052.3622" width="744.09448" y="0" x="0"/>
        <use id="use3031" xlink:href="#rect2499" transform="translate(400,600)" height="1052.3622" width="744.09448" y="0" x="0"/>
        <use id="use3037" xlink:href="#rect2499" transform="translate(500,100)" height="1052.3622" width="744.09448" y="0" x="0"/>
        <use id="use3041" xlink:href="#rect2499" transform="translate(500,300)" height="1052.3622" width="744.09448" y="0" x="0"/>
        <use id="use3045" xlink:href="#rect2499" transform="translate(500,500)" height="1052.3622" width="744.09448" y="0" x="0"/>
        <use id="use3049" xlink:href="#rect2499" transform="translate(500,700)" height="1052.3622" width="744.09448" y="0" x="0"/>
        <use id="use3051" xlink:href="#rect2499" transform="translate(600)" height="1052.3622" width="744.09448" y="0" x="0"/>
        <use id="use3055" xlink:href="#rect2499" transform="translate(600,200)" height="1052.3622" width="744.09448" y="0" x="0"/>
        <use id="use3059" xlink:href="#rect2499" transform="translate(600,400)" height="1052.3622" width="744.09448" y="0" x="0"/>
        <use id="use3063" xlink:href="#rect2499" transform="translate(600,600)" height="1052.3622" width="744.09448" y="0" x="0"/>
        <use id="use3069" xlink:href="#rect2499" transform="translate(700,100)" height="1052.3622" width="744.09448" y="0" x="0"/>
        <use id="use3073" xlink:href="#rect2499" transform="translate(700,300)" height="1052.3622" width="744.09448" y="0" x="0"/>
        <use id="use3077" xlink:href="#rect2499" transform="translate(700,500)" height="1052.3622" width="744.09448" y="0" x="0"/>
        <use id="use3081" xlink:href="#rect2499" transform="translate(700,700)" height="1052.3622" width="744.09448" y="0" x="0"/>
        <rect id="rect2497" fill-rule="evenodd" height="100" width="100" y="-225.52" x="1011.7" fill="#666"/>
        <use id="use3087" xlink:href="#rect2497" transform="translate(-100,100)" height="1052.3622" width="744.09448" y="0" x="0"/>
        <use id="use3091" xlink:href="#rect2497" transform="translate(-100,300)" height="1052.3622" width="744.09448" y="0" x="0"/>
        <use id="use3095" xlink:href="#rect2497" transform="translate(-100,500)" height="1052.3622" width="744.09448" y="0" x="0"/>
        <use id="use3099" xlink:href="#rect2497" transform="translate(-100,700)" height="1052.3622" width="744.09448" y="0" x="0"/>
        <use id="use3105" xlink:href="#rect2497" transform="translate(0,200)" height="1052.3622" width="744.09448" y="0" x="0"/>
        <use id="use3109" xlink:href="#rect2497" transform="translate(0,400)" height="1052.3622" width="744.09448" y="0" x="0"/>
        <use id="use3113" xlink:href="#rect2497" transform="translate(0,600)" height="1052.3622" width="744.09448" y="0" x="0"/>
        <use id="use3119" xlink:href="#rect2497" transform="translate(100,100)" height="1052.3622" width="744.09448" y="0" x="0"/>
        <use id="use3123" xlink:href="#rect2497" transform="translate(100,300)" height="1052.3622" width="744.09448" y="0" x="0"/>
        <use id="use3127" xlink:href="#rect2497" transform="translate(100,500)" height="1052.3622" width="744.09448" y="0" x="0"/>
        <use id="use3131" xlink:href="#rect2497" transform="translate(100,700)" height="1052.3622" width="744.09448" y="0" x="0"/>
        <use id="use3133" xlink:href="#rect2497" transform="translate(200)" height="1052.3622" width="744.09448" y="0" x="0"/>
        <use id="use3137" xlink:href="#rect2497" transform="translate(200,200)" height="1052.3622" width="744.09448" y="0" x="0"/>
        <use id="use3141" xlink:href="#rect2497" transform="translate(200,400)" height="1052.3622" width="744.09448" y="0" x="0"/>
        <use id="use3145" xlink:href="#rect2497" transform="translate(200,600)" height="1052.3622" width="744.09448" y="0" x="0"/>
        <use id="use3151" xlink:href="#rect2497" transform="translate(300,100)" height="1052.3622" width="744.09448" y="0" x="0"/>
        <use id="use3155" xlink:href="#rect2497" transform="translate(300,300)" height="1052.3622" width="744.09448" y="0" x="0"/>
        <use id="use3159" xlink:href="#rect2497" transform="translate(300,500)" height="1052.3622" width="744.09448" y="0" x="0"/>
        <use id="use3163" xlink:href="#rect2497" transform="translate(300,700)" height="1052.3622" width="744.09448" y="0" x="0"/>
        <use id="use3165" xlink:href="#rect2497" transform="translate(400)" height="1052.3622" width="744.09448" y="0" x="0"/>
        <use id="use3169" xlink:href="#rect2497" transform="translate(400,200)" height="1052.3622" width="744.09448" y="0" x="0"/>
        <use id="use3173" xlink:href="#rect2497" transform="translate(400,400)" height="1052.3622" width="744.09448" y="0" x="0"/>
        <use id="use3177" xlink:href="#rect2497" transform="translate(400,600)" height="1052.3622" width="744.09448" y="0" x="0"/>
        <use id="use3183" xlink:href="#rect2497" transform="translate(500,100)" height="1052.3622" width="744.09448" y="0" x="0"/>
        <use id="use3187" xlink:href="#rect2497" transform="translate(500,300)" height="1052.3622" width="744.09448" y="0" x="0"/>
        <use id="use3191" xlink:href="#rect2497" transform="translate(500,500)" height="1052.3622" width="744.09448" y="0" x="0"/>
        <use id="use3195" xlink:href="#rect2497" transform="translate(500,700)" height="1052.3622" width="744.09448" y="0" x="0"/>
        <use id="use3197" xlink:href="#rect2497" transform="translate(600)" height="1052.3622" width="744.09448" y="0" x="0"/>
        <use id="use3201" xlink:href="#rect2497" transform="translate(600,200)" height="1052.3622" width="744.09448" y="0" x="0"/>
        <use id="use3205" xlink:href="#rect2497" transform="translate(600,400)" height="1052.3622" width="744.09448" y="0" x="0"/>
        <use id="use3209" xlink:href="#rect2497" transform="translate(600,600)" height="1052.3622" width="744.09448" y="0" x="0"/>
      </g>
    </g>
  </g>
</svg>
